<svg height="511pt" viewBox="0 -26 511.99962 511" width="511pt" xmlns="http://www.w3.org/2000/svg"><g fill="#eda1ab"><path d="m73.238281 313.742188c0 18.160156-14.722656 32.878906-32.878906 32.878906-18.160156 0-32.882813-14.71875-32.882813-32.878906 0-18.160157 14.722657-32.878907 32.882813-32.878907 18.15625 0 32.878906 14.71875 32.878906 32.878907zm0 0"/><path d="m238.023438 408.964844c0 18.160156-14.722657 32.878906-32.882813 32.878906-18.15625 0-32.878906-14.71875-32.878906-32.878906s14.722656-32.878906 32.878906-32.878906c18.160156 0 32.882813 14.71875 32.882813 32.878906zm0 0"/><path d="m339.738281 408.964844c0 18.160156-14.722656 32.878906-32.878906 32.878906-18.160156 0-32.882813-14.71875-32.882813-32.878906s14.722657-32.878906 32.882813-32.878906c18.15625 0 32.878906 14.71875 32.878906 32.878906zm0 0"/></g><path d="m137.875 332.683594c0 18.160156-14.71875 32.878906-32.878906 32.878906s-32.878906-14.71875-32.878906-32.878906 14.71875-32.878906 32.878906-32.878906 32.878906 14.71875 32.878906 32.878906zm0 0" fill="#e26e7e"/><path d="m504.519531 313.742188c0 18.160156-14.71875 32.878906-32.878906 32.878906s-32.878906-14.71875-32.878906-32.878906c0-18.160157 14.71875-32.878907 32.878906-32.878907s32.878906 14.71875 32.878906 32.878907zm0 0" fill="#eda1ab"/><path d="m439.882812 332.683594c0 18.160156-14.71875 32.878906-32.878906 32.878906s-32.878906-14.71875-32.878906-32.878906 14.71875-32.878906 32.878906-32.878906 32.878906 14.71875 32.878906 32.878906zm0 0" fill="#e26e7e"/><path d="m487.90625 256.582031c-13.265625-12.824219-34.425781-12.023437-47.644531.851563-8.890625 8.667968-20.601563 13.429687-33.042969 13.429687-9.773438 0-18.867188-2.976562-26.421875-8.070312-13.933594-9.402344-17.484375-28.355469-8.425781-42.515625 13.800781-21.582032 21.765625-47.257813 21.65625-74.804688-.292969-74.878906-61.101563-136.367187-135.972656-137.457031-77.171876-1.121094-140.085938 61.097656-140.085938 138.015625 0 27.371094 7.972656 52.878906 21.71875 74.335938 9.042969 14.117187 5.414062 33.046874-8.484375 42.425781-7.550781 5.09375-16.644531 8.070312-26.421875 8.070312-12.441406 0-24.152344-4.761719-33.046875-13.429687-13.214844-12.875-34.375-13.675782-47.640625-.851563-13.566406 13.109375-13.703125 34.734375-.417969 48.019531 21.664063 21.664063 50.464844 33.59375 81.105469 33.59375 32.050781 0 61.074219-13.21875 81.90625-34.492187-5.8125 29.929687-18.492188 61.734375-46.167969 91.894531-12.570312 13.699219-11.65625 34.996094 2.042969 47.566406 6.464844 5.933594 14.621094 8.863282 22.753906 8.863282 9.101563 0 18.175782-3.671875 24.816406-10.90625 36.539063-39.820313 53.671876-81.835938 61.707032-119.894532.953125-4.511718 7.371094-4.511718 8.320312 0 8.039063 38.058594 25.171875 80.074219 61.710938 119.894532 6.636718 7.234375 15.714844 10.90625 24.8125 10.90625 8.136718 0 16.289062-2.929688 22.753906-8.863282 13.699219-12.570312 14.617188-33.867187 2.046875-47.566406-27.675781-30.160156-40.355469-61.964844-46.171875-91.894531 20.835938 21.273437 49.855469 34.492187 81.910156 34.492187 30.636719 0 59.4375-11.929687 81.105469-33.59375 13.28125-13.285156 13.144531-34.910156-.421875-48.019531zm0 0" fill="#b49cdc"/><path d="m487.90625 256.582031c-13.265625-12.824219-34.425781-12.023437-47.644531.851563-8.890625 8.667968-20.601563 13.429687-33.042969 13.429687-9.773438 0-18.867188-2.976562-26.421875-8.070312-13.933594-9.402344-17.484375-28.355469-8.425781-42.515625 13.800781-21.582032 21.765625-47.257813 21.65625-74.804688-.292969-74.878906-61.101563-136.367187-135.972656-137.457031-77.171876-1.121094-140.085938 61.097656-140.085938 138.015625 0 27.371094 7.972656 52.878906 21.71875 74.335938 9.042969 14.117187 5.414062 33.046874-8.484375 42.425781-7.550781 5.09375-16.644531 8.070312-26.421875 8.070312-12.441406 0-24.152344-4.761719-33.046875-13.429687-13.214844-12.875-34.375-13.675782-47.640625-.851563-13.566406 13.109375-13.703125 34.734375-.417969 48.019531 21.664063 21.664063 50.464844 33.59375 81.105469 33.59375 32.050781 0 61.074219-13.21875 81.90625-34.492187-5.8125 29.929687-18.492188 61.734375-46.167969 91.894531-12.570312 13.699219-11.65625 34.996094 2.042969 47.566406 6.464844 5.933594 14.621094 8.863282 22.753906 8.863282 9.101563 0 18.175782-3.671875 24.816406-10.90625 36.539063-39.820313 53.671876-81.835938 61.707032-119.894532.953125-4.511718 7.371094-4.511718 8.320312 0 8.039063 38.058594 25.171875 80.074219 61.710938 119.894532 6.636718 7.234375 15.714844 10.90625 24.8125 10.90625 8.136718 0 16.289062-2.929688 22.753906-8.863282 13.699219-12.570312 14.617188-33.867187 2.046875-47.566406-27.675781-30.160156-40.355469-61.964844-46.171875-91.894531 20.835938 21.273437 49.855469 34.492187 81.910156 34.492187 30.636719 0 59.4375-11.929687 81.105469-33.59375 13.28125-13.285156 13.144531-34.910156-.421875-48.019531zm0 0" fill="#b49cdc"/><path d="m209.09375 16.183594c-53.140625 19.203125-91.125 70.085937-91.125 129.847656 0 27.371094 7.972656 52.878906 21.71875 74.335938 9.042969 14.121093 5.414062 33.046874-8.484375 42.425781-7.550781 5.09375-16.644531 8.074219-26.421875 8.074219-12.441406 0-24.152344-4.765626-33.046875-13.429688-13.214844-12.878906-34.375-13.679688-47.640625-.855469-13.566406 13.109375-13.703125 34.734375-.417969 48.019531 21.664063 21.664063 50.464844 33.597657 81.105469 33.597657 32.050781 0 61.074219-13.222657 81.90625-34.496094-5.8125 29.933594-18.492188 61.734375-46.167969 91.894531-12.570312 13.703125-11.65625 34.996094 2.042969 47.570313 6.464844 5.929687 14.621094 8.859375 22.753906 8.859375 9.101563 0 18.175782-3.667969 24.816406-10.90625 35.269532-38.433594 52.457032-78.914063 60.835938-115.90625-73.980469-61.296875-103.601562-251.882813-41.875-309.03125zm0 0" fill="#908cd6"/><path d="m356.738281 51.921875c-15.351562-16.421875-34.648437-29.125-56.339843-36.550781-8.476563 6.515625-13.941407 16.746094-13.941407 28.261718 0 19.675782 15.953125 35.628907 35.628907 35.628907 16.824218 0 30.914062-11.660157 34.652343-27.339844zm0 0" fill="#908cd6"/><path d="m213.777344 70.265625c0 10.476563-8.492188 18.96875-18.96875 18.96875-10.476563 0-18.972656-8.492187-18.972656-18.96875s8.496093-18.96875 18.972656-18.96875c10.476562 0 18.96875 8.492187 18.96875 18.96875zm0 0" fill="#908cd6"/><path d="m201.507812 172.296875c0-14.011719-14.265624-25.375-31.863281-25.375-17.597656 0-31.863281 11.363281-31.863281 25.375 0 14.015625 14.265625 25.375 31.863281 25.375 17.597657 0 31.863281-11.359375 31.863281-25.375zm0 0" fill="#eda1ab"/><path d="m374.21875 172.296875c0-14.011719-14.265625-25.375-31.863281-25.375-17.597657 0-31.863281 11.363281-31.863281 25.375 0 14.015625 14.265624 25.375 31.863281 25.375 17.597656 0 31.863281-11.359375 31.863281-25.375zm0 0" fill="#eda1ab"/><path d="m281.691406 152.800781c0-15.875-11.503906-17.367187-25.691406-17.367187s-25.6875 1.492187-25.6875 17.367187c0 15.878907 11.5 28.746094 25.6875 28.746094s25.691406-12.867187 25.691406-28.746094zm0 0" fill="#4e5660"/><path d="m452.667969 294.378906c-1.917969 0-3.839844-.734375-5.304688-2.199218-2.925781-2.929688-2.925781-7.679688 0-10.605469l5.945313-5.941407c2.925781-2.929687 7.675781-2.929687 10.605468 0 2.929688 2.929688 2.929688 7.675782 0 10.605469l-5.941406 5.941407c-1.464844 1.464843-3.386718 2.199218-5.304687 2.199218zm0 0" fill="#908cd6"/><path d="m173.191406 418.925781c-1.917968 0-3.839844-.730469-5.304687-2.195312-2.929688-2.929688-2.929688-7.679688 0-10.609375l6.566406-6.5625c2.929687-2.929688 7.675781-2.929688 10.605469 0 2.929687 2.929687 2.929687 7.679687 0 10.609375l-6.5625 6.5625c-1.464844 1.464843-3.386719 2.195312-5.304688 2.195312zm0 0" fill="#b49cdc"/><path d="m337.027344 149.835938c4.140625 0 7.5-3.355469 7.5-7.5v-13.675782c0-4.140625-3.359375-7.5-7.5-7.5s-7.5 3.359375-7.5 7.5v13.675782c0 4.144531 3.359375 7.5 7.5 7.5zm-47.835938 2.964843c0-24.867187-22.417968-24.867187-33.191406-24.867187s-33.191406 0-33.191406 24.867187c0 19.988281 14.890625 36.246094 33.191406 36.246094s33.191406-16.257813 33.191406-36.246094zm-51.378906 0c0-7.160156 1.566406-9.867187 18.1875-9.867187s18.1875 2.707031 18.1875 9.867187c0 11.714844-8.160156 21.246094-18.1875 21.246094-10.03125 0-18.1875-9.53125-18.1875-21.246094zm266.753906 137.578125c.765625-3.210937 1.148438-6.539062 1.117188-9.933594-.09375-11.125-4.554688-21.515624-12.5625-29.257812-16.097656-15.5625-41.617188-15.175781-58.09375.875-7.476563 7.289062-17.355469 11.300781-27.808594 11.300781-7.957031 0-15.644531-2.347656-22.226562-6.789062-10.375-7-13.203126-21.46875-6.304688-32.253907 15.054688-23.542968 22.953125-50.816406 22.839844-78.875-.148438-38.195312-15.132813-74.292968-42.1875-101.648437-27.058594-27.351563-62.988282-42.726563-101.175782-43.28125-45.820312-.675781-88.300781 19.609375-116.625 55.628906-2.5625 3.253907-1.996093 7.96875 1.257813 10.53125 3.257813 2.5625 7.972656 1.996094 10.535156-1.257812 25.40625-32.3125 63.558594-50.476563 104.613281-49.902344 70.621094 1.027344 128.304688 59.339844 128.582032 129.988281.101562 25.171875-6.980469 49.628906-20.476563 70.734375-11.246093 17.585938-6.511719 41.257813 10.550781 52.773438 9.070313 6.121093 19.660157 9.355469 30.617188 9.355469 14.386719 0 27.980469-5.527344 38.277344-15.558594 10.449218-10.183594 27.136718-10.558594 37.199218-.832032 5.089844 4.921876 7.925782 11.527344 7.988282 18.597657.023437 3.015625-.460938 5.957031-1.40625 8.722656-.042969.113281-.082032.230469-.121094.347656-1.285156 3.585938-3.355469 6.875-6.136719 9.65625-12.777343 12.777344-28.210937 21.925781-45.054687 26.941407-.125.03125-.246094.066406-.367188.105468-9.738281 2.863282-19.945312 4.351563-30.378906 4.351563s-20.628906-1.492188-30.359375-4.355469c-.386719-.152344-.789063-.269531-1.203125-.355469-16.847656-5.179687-32.25-14.527343-44.984375-27.53125-2.320313-2.367187-5.914063-2.933593-8.847656-1.394531-2.929688 1.539062-4.507813 4.820312-3.875 8.074219 7.164062 36.890625 22.867187 68.140625 48.003906 95.53125 1.964844 2.144531 3.546875 4.566406 4.699219 7.195312 1.234375 2.816407 3.984375 4.496094 6.875 4.496094 1.003906 0 2.027344-.203125 3.003906-.632813 3.796875-1.664062 5.523438-6.085937 3.863281-9.878906-1.816406-4.148437-4.304687-7.957031-7.386719-11.320312-18.011718-19.628906-30.78125-41.414063-38.691406-66.117188 8.957032 6.15625 18.640625 11.039063 28.820313 14.570313 3.0625 19.234375 19.898437 34.082031 39.867187 34.082031 18.285156 0 33.570313-11.859375 38.601563-28.46875 7.496093 6.332031 16.761719 9.507812 26.035156 9.507812 10.339844 0 20.679687-3.933593 28.554687-11.808593 14.035157-14.03125 15.632813-36.074219 4.371094-51.914063zm-97.5625 67.683594c-10.035156 0-18.808594-5.96875-22.90625-14.542969 7.539063 1.441407 15.273438 2.179688 23.121094 2.179688 7.683594 0 15.253906-.714844 22.644531-2.09375-4.125 8.523437-12.882812 14.457031-22.859375 14.457031zm82.582032-26.375c-8.675782 8.675781-22.125 9.742188-31.976563 3.199219 13.242187-5.996094 25.433594-14.394531 36.019531-24.980469.882813-.882812 1.714844-1.804688 2.503906-2.75 2.273438 8.5.0625 17.925781-6.546874 24.53125zm-111.316407 100.542969c-3.335937-2.449219-8.03125-1.734375-10.488281 1.605469-1 1.363281-2.152344 2.644531-3.414062 3.804687-4.839844 4.4375-11.121094 6.886719-17.683594 6.886719-7.3125 0-14.34375-3.089844-19.285156-8.476563-.558594-.605469-1.101563-1.214843-1.652344-1.824219-.046875-.058593-.101563-.113281-.152344-.167968-14.242188-15.832032-26.019531-32.640625-35.445312-50.648438-.199219-.507812-.449219-1-.765626-1.460937-9.925781-19.292969-17.171874-39.960938-21.882812-62.269531-1.160156-5.496094-5.890625-9.335938-11.5-9.335938s-10.339844 3.839844-11.5 9.335938c-4.710938 22.3125-11.957031 42.980468-21.882812 62.269531-.316407.460937-.566407.953125-.765626 1.460937-9.425781 18.007813-21.203124 34.816406-35.449218 50.648438-.050782.054687-.101563.109375-.148438.164062-.550781.609375-1.09375 1.222656-1.652344 1.828125-4.941406 5.386719-11.96875 8.476563-19.285156 8.476563-6.566406 0-12.84375-2.449219-17.683594-6.886719-10.628906-9.757813-11.34375-26.339844-1.585937-36.972656 25.136719-27.390625 40.839844-58.640625 48.003906-95.535157.628907-3.25-.945312-6.53125-3.878906-8.070312-2.929687-1.539062-6.527344-.972656-8.84375 1.394531-12.730469 12.996094-28.128906 22.34375-44.96875 27.527344-.433594.085937-.855469.210937-1.257813.371094-9.71875 2.855469-19.902343 4.34375-30.320312 4.34375-10.429688 0-20.628906-1.488281-30.363281-4.34375-.128907-.042969-.257813-.082031-.394531-.117188-16.839844-5.015625-32.269532-14.164062-45.046876-26.9375-2.777343-2.777343-4.851562-6.070312-6.136718-9.65625-.035156-.117187-.074219-.230469-.117188-.347656-.949218-2.765625-1.433594-5.703125-1.40625-8.722656.058594-7.070313 2.898438-13.675781 7.988282-18.597657 10.058593-9.722656 26.746093-9.347656 37.195312.832032 10.296875 10.035156 23.890625 15.558594 38.277344 15.558594 10.960937 0 21.546875-3.234376 30.621094-9.355469 17.074218-11.523438 21.832031-35.15625 10.605468-52.6875-13.433594-20.96875-20.53125-45.273438-20.53125-70.292969 0-17.886719 3.546875-35.214844 10.550782-51.5 1.632812-3.804688-.125-8.214844-3.929688-9.851562-3.804688-1.636719-8.21875.121093-9.851562 3.925781-7.8125 18.171875-11.773438 37.492187-11.773438 57.425781 0 27.890625 7.921875 54.996094 22.902344 78.382812 6.871094 10.730469 4.019531 25.15625-6.363282 32.164063-6.582031 4.441406-14.269531 6.789063-22.226562 6.789063-10.457031 0-20.332031-4.011719-27.8125-11.300782-16.472656-16.054687-41.992188-16.4375-58.089844-.875-8.007812 7.742188-12.46875 18.128906-12.5625 29.257813-.03125 3.390625.351563 6.71875 1.113282 9.933593-11.257813 15.839844-9.660157 37.878907 4.375 51.914063 7.871093 7.875 18.210937 11.808594 28.554687 11.808594 9.273437 0 18.539063-3.175781 26.03125-9.507813 5.035156 16.609375 20.320313 28.46875 38.605469 28.46875 19.964844 0 36.804687-14.851562 39.867187-34.082031 10.179688-3.53125 19.859375-8.414063 28.820313-14.570313-7.910156 24.703126-20.679688 46.488282-38.691406 66.117188-15.347657 16.726562-14.226563 42.816406 2.5 58.164062 7.613281 6.988282 17.496093 10.835938 27.824218 10.835938 10.757813 0 21.121094-4.25 28.78125-11.726562 3.671875 1.054687 7.414063 1.585937 11.132813 1.585937 10.457031 0 20.695312-4.097656 28.464843-11.867187 14.125-14.125 15.527344-36.535157 4.082032-52.300782 7.644531-15.464844 13.699218-31.753906 18.222656-48.996094 4.527344 17.242188 10.582031 33.53125 18.222656 48.996094-11.441406 15.765625-10.042968 38.175782 4.082032 52.300782 7.769531 7.769531 18.007812 11.867187 28.464843 11.867187 3.71875 0 7.460938-.53125 11.132813-1.585937 7.660156 7.476562 18.023437 11.726562 28.78125 11.726562 10.332031 0 20.210937-3.847656 27.828125-10.835938 1.976562-1.816406 3.78125-3.824218 5.359375-5.972656 2.453125-3.34375 1.734375-8.039062-1.601563-10.492187zm-355.859375-100.542969c-6.605468-6.605469-8.816406-16.03125-6.542968-24.53125.789062.945312 1.621093 1.867188 2.503906 2.75 10.585937 10.585938 22.777344 18.984375 36.019531 24.980469-9.851563 6.542969-23.300781 5.476562-31.980469-3.199219zm82.585938 26.375c-9.976563 0-18.734375-5.933594-22.859375-14.453125 7.390625 1.375 14.960937 2.089844 22.640625 2.089844 7.851562 0 15.585937-.738281 23.125-2.179688-4.097656 8.574219-12.871094 14.542969-22.90625 14.542969zm118.09375 68.847656c-4.699219 4.699219-10.839844 7.253906-17.152344 7.441406 8.742188-10.652343 16.488281-21.71875 23.269531-33.253906 2.839844 8.804688.804688 18.890625-6.117187 25.8125zm65.820312 0c-6.921875-6.921875-8.957031-17.007812-6.117187-25.8125 6.78125 11.535156 14.527343 22.601563 23.269531 33.253906-6.316406-.1875-12.453125-2.742187-17.152344-7.441406zm-106.4375-284.574218v-13.675782c0-4.140625-3.359375-7.5-7.5-7.5-4.144531 0-7.503906 3.359375-7.503906 7.5v13.675782c0 4.144531 3.359375 7.5 7.503906 7.5 4.140625 0 7.5-3.355469 7.5-7.5zm0 0"/></svg>