<svg height="512" viewBox="0 0 512 512" width="512" xmlns="http://www.w3.org/2000/svg"><g id="Train-2" data-name="Train"><path d="m432 88v304h-352v-304c0-39.76 78.8-72 176-72s176 32.24 176 72z" fill="#d80027"/><circle cx="144" cy="320" fill="#ffda44" r="24"/><circle cx="368" cy="320" fill="#ffda44" r="24"/><path d="m64 392h384v32h-384z" fill="#ff9811"/><path d="m184 72h144v32h-144z" fill="#ffda44"/><path d="m80 136h168v128h-168z" fill="#3d9ae2"/><path d="m256 136h168v128h-168z" fill="#1a6fb0"/><path d="m144 352a32 32 0 1 0 -32-32 32.036 32.036 0 0 0 32 32zm0-48a16 16 0 1 1 -16 16 16.019 16.019 0 0 1 16-16z"/><path d="m368 288a32 32 0 1 0 32 32 32.036 32.036 0 0 0 -32-32zm0 48a16 16 0 1 1 16-16 16.019 16.019 0 0 1 -16 16z"/><path d="m461.657 490.343-24-24-.008-.008-23.992-23.992-.008-.008-10.336-10.335h44.687a8 8 0 0 0 8-8v-32a8 8 0 0 0 -8-8h-8v-296c0-22.693-20.073-43.4-56.521-58.314-34.179-13.986-79.455-21.686-127.479-21.686s-93.3 7.7-127.479 21.686c-36.448 14.914-56.521 35.621-56.521 58.314v296h-8a8 8 0 0 0 -8 8v32a8 8 0 0 0 8 8h44.687l-10.34 10.339-.008.008-23.992 23.992-.008.008-24 24a8 8 0 0 0 11.314 11.314l21.66-21.661h345.374l21.656 21.657a8 8 0 0 0 11.314-11.314zm-373.657-346.343h160v112h-160zm176 0h160v112h-160zm-176-56c0-15.538 16.978-31.4 46.579-43.5 32.305-13.222 75.426-20.5 121.421-20.5s89.116 7.278 121.421 20.5c29.601 12.1 46.579 27.962 46.579 43.5v40h-336zm0 184h336v112h-336zm-16 128h368v16h-368zm308.687 32 8 8h-265.374l8-8zm-281.374 32 8-8h297.374l8 8z"/><path d="m176 360h-56a8 8 0 0 0 0 16h56a8 8 0 0 0 0-16z"/><path d="m208 360h-8a8 8 0 0 0 0 16h8a8 8 0 0 0 0-16z"/><path d="m328 64h-144a8 8 0 0 0 -8 8v32a8 8 0 0 0 8 8h144a8 8 0 0 0 8-8v-32a8 8 0 0 0 -8-8zm-8 32h-128v-16h128z"/></g></svg>